PathFileType	4	(X/Y/Z)	RBDS019\RBDS019runT25.trc
DataRate	CameraRate	NumFrames	NumMarkers	Units	OrigDataRate	OrigDataStartFrame	OrigNumFrames
150.000000	150.000000	6	33	mm	150.000000	2250	4500
Frame#	Time	L.ASIS			L.Heel.Bottom			L.Heel.Lateral			L.Heel.Top			L.Iliac.Crest			L.MT1			L.MT5			L.PSIS			L.Shank.Bottom.Lateral			L.Shank.Bottom.Medial			L.Shank.Top.Lateral			L.Shank.Top.Medial			L.Thigh.Bottom.Lateral			L.Thigh.Bottom.Medial			L.Thigh.Top.Lateral			L.Thigh.Top.Medial			R.ASIS			R.ASY			R.Heel.Bottom			R.Heel.Lateral			R.Heel.Top			R.Iliac.Crest			R.MT1			R.MT5			R.PSIS			R.Shank.Bottom.Lateral			R.Shank.Bottom.Medial			R.Shank.Top.Lateral			R.Shank.Top.Medial			R.Thigh.Bottom.Lateral			R.Thigh.Bottom.Medial			R.Thigh.Top.Lateral			R.Thigh.Top.Medial			
		X1	Y1	Z1	X2	Y2	Z2	X3	Y3	Z3	X4	Y4	Z4	X5	Y5	Z5	X6	Y6	Z6	X7	Y7	Z7	X8	Y8	Z8	X9	Y9	Z9	X10	Y10	Z10	X11	Y11	Z11	X12	Y12	Z12	X13	Y13	Z13	X14	Y14	Z14	X15	Y15	Z15	X16	Y16	Z16	X17	Y17	Z17	X18	Y18	Z18	X19	Y19	Z19	X20	Y20	Z20	X21	Y21	Z21	X22	Y22	Z22	X23	Y23	Z23	X24	Y24	Z24	X25	Y25	Z25	X26	Y26	Z26	X27	Y27	Z27	X28	Y28	Z28	X29	Y29	Z29	X30	Y30	Z30	X31	Y31	Z31	X32	Y32	Z32	X33	Y33	Z33	

2251	15	2353.054931231284	899.6571328932038	920.3541870047577	1846.243005333459	483.4491608326475	1031.665069896869	1853.757765911478	467.3400074286379	979.0116752380006	1891.249984816255	470.5607297909995	1020.748106808719	2315.945482569563	957.6568288820259	875.1060389800965	1835.693785349683	277.7105072478123	1001.471211336476	1818.018543740711	340.0659858855821	915.3929236092829	2177.424641697845	932.2887148789702	951.2534772433661	1965.621396261773	429.7514025841178	937.5586784579667	1967.959103924907	457.428706666453	980.3152313664127	2041.9150815708	447.2542885655533	917.7784471038841	2048.66472796733	473.5256669837132	963.1080424339281	2268.644614624622	525.6812953905201	864.1458382554134	2211.857719342252	526.1350384301629	910.6935087844794	2259.027481953543	633.7702608722361	851.2555274053215	2205.364648754438	634.4700574213961	896.5756264966529	2311.928538008513	925.7286626752887	1149.914191187857	2387.33764414461	75.31573850045959	1042.976717173017	2210.140671792077	29.69974655006491	1049.583365405383	2240.774243596455	44.64639495211362	1087.706497308705	2222.483389389313	73.87340542651006	1047.178408201934	2252.965463501115	974.3310801010231	1164.654765669275	2407.876984891681	44.53029015363146	999.7216127955063	2385.933434441802	31.88708236867908	1107.67880192468	2161.983715036184	943.1550060233395	1050.66995359067	2305.659478856277	143.052545786648	1107.011652410036	2262.693931946985	158.8805390472785	1074.900351709331	2313.033677822811	220.3748684023545	1131.903983829584	2272.56672456594	235.1444173950979	1098.296551982843	2348.653483262913	547.3234358498763	1174.982932426875	2294.689751552628	529.6524874143354	1131.616755074866	2302.192499701936	645.8165122594506	1194.42543536975	2248.089123703765	626.8225486238534	1156.724335653925	
2252	15.00666666666667	2350.741143299183	894.6429469205183	919.6463908727535	1856.66178937296	485.4156972306583	1027.527259862414	1865.327047513807	468.0956710008713	975.6318271481506	1901.860718678616	472.2083796430306	1018.087277352053	2312.393460431899	951.3732577695156	873.3859901648524	1846.634449241219	279.1976279105514	1001.762483765791	1830.971570180921	339.5514879807434	914.0726915254235	2175.000166687749	927.0416259459781	949.123443660808	1977.809327749102	429.6029483495003	936.4967011331454	1980.270307148191	457.633121300429	979.023070882404	2054.482863990307	445.5852535022112	917.1579569254495	2061.377899564972	472.1076702176145	962.3335170604886	2277.042084022903	520.968350897689	864.4832564177467	2219.307108427211	519.809641502525	909.7892771756178	2264.405196881015	628.6917480352425	851.1340939443927	2209.917105893316	627.8837744298484	895.3718072080997	2309.3598356781	923.5270177914438	1150.229010578101	2371.190319026354	75.23714882407874	1043.34880929125	2193.783127548353	30.47695393802834	1049.797431999016	2224.44203140389	45.40428972622892	1087.902918734014	2206.224973066767	74.58006655660046	1047.399735659658	2248.809192951527	969.4448568361229	1164.113446264068	2391.488984040916	45.04713995867437	1000.139918621029	2369.317965344364	32.18718572649411	1108.103583078609	2159.443758502856	939.4325619255926	1047.97754621974	2292.219723749237	143.2971721702287	1107.55318602403	2249.794163528049	160.7046715691471	1075.47218127258	2302.331700406673	220.2743775851779	1132.641629909417	2262.263440704888	236.5215033953143	1099.074951424543	2345.017881193083	544.7325871284469	1176.727538566169	2291.677009306796	527.2446341885997	1132.433270146714	2298.431293029808	643.3668826416512	1195.519624652476	2244.947161396569	624.4733234422823	1156.917596426865	
2253	15.01333333333333	2348.334977556362	890.5269660017251	918.7320062432755	1866.930775381344	486.2760417276367	1022.8944589857	1876.788298990725	467.6184852954302	971.8554124495045	1912.360382949999	472.9699212020735	1014.943915218645	2308.123119107171	946.2076598743473	871.6110239605673	1858.356600111503	279.5551770300951	1002.275924425549	1844.364731619566	337.4873417879076	912.8756687800798	2172.640219067371	922.8511694553132	947.4359647664445	1990.093811551447	428.8701907012718	935.2201156603525	1992.527643842946	457.2841657708506	977.5111540619732	2067.110145170428	443.7039955480671	916.4548332511181	2073.972509474687	470.5599436430194	961.4528165251223	2285.689494196076	517.3089236217404	864.896051273494	2227.034243873124	514.4650222441056	908.8856030720832	2270.016089953602	624.5734576301611	851.0642486196645	2214.688660666846	622.1927151250528	894.1219007742826	2307.125143660494	921.8236102155369	1150.264923618917	2354.904668651207	75.35357025649873	1043.787209387276	2177.456865212235	31.07517495277436	1050.096132106366	2208.114048068929	45.99860884989587	1088.199519848796	2189.919355270009	75.11677036659991	1047.746670391891	2244.857578245845	965.6532614766904	1163.434000278471	2375.011130093576	45.73479794029117	1000.644650459201	2352.691955020644	32.57556366822625	1108.523586909223	2157.16795681115	936.5757433901358	1045.688695659218	2278.445597214234	143.4449836919625	1108.10897779853	2236.489974157108	162.234856025953	1076.183215674619	2291.050615367547	220.0098839699929	1133.394044012819	2251.311797552351	237.5634998011425	1099.958857854243	2340.155277091972	542.2537985549471	1178.10549294036	2287.269574121826	525.238205072593	1132.991371891945	2294.006294481364	641.2567453186548	1196.282953647266	2241.022569082554	622.7736480088905	1156.845150375363	
2254	15.02	2345.883033553378	887.3881223376056	917.6340752024435	1876.961833931098	485.9451241227305	1017.908483354676	1888.041182590295	465.8929694215453	967.7879059741414	1922.663470521438	472.7816555755384	1011.401525802309	2303.317569521394	942.2961253053452	869.8601498886568	1870.765797805538	278.7496401831028	1002.981240796257	1858.07925935332	333.9362009524805	911.8296599030008	2170.36307924782	919.7387249913337	946.2769300984111	2002.354397087654	427.5467440142402	933.7570240040483	2004.605187733478	456.3751093179442	975.805406271293	2079.687072090321	441.6441980393769	915.6816458466401	2086.331593431277	468.9159179733678	960.4765690356703	2294.515157955269	514.7479621493098	865.3752239585536	2235.008483734264	510.1444692365815	908.0168183428792	2275.791452003152	621.4623458202183	851.0449059553682	2219.651057196148	617.437661648496	892.8671528882894	2305.263171253278	920.5377215416779	1150.028957992597	2338.51494574048	75.52920932378331	1044.228922327806	2161.109888921661	31.52800638736888	1050.428726266494	2191.756553624843	46.44381477361549	1088.54219299288	2173.564041714041	75.51609377390041	1048.151584596311	2241.27421503804	963.0064045065366	1162.681378997911	2358.456613223025	46.40806327460813	1001.17534529965	2336.042698133734	32.94124514733312	1108.90708957013	2155.162612513665	934.5662589511954	1043.930947123875	2264.338912381013	143.4475033808471	1108.598669940757	2222.770588388321	163.4243951308461	1076.94521429064	2279.172064266651	219.556370425405	1134.085171220427	2239.692069649044	238.247107209973	1100.86065197066	2334.137593579658	539.9106186132688	1179.080640217386	2281.51227751137	523.6180417500022	1133.311808102927	2288.970079777832	639.4904402444081	1196.704092158065	2236.337332902105	621.6979478526586	1156.547363049386	
2255	15.02666666666667	2343.42974284894	885.2595103666489	916.3874024360505	1886.675965699823	484.3361843131972	1012.723944033571	1899.004919581301	462.9078460037067	963.5440459574553	1932.691596970092	471.5774491097949	1007.560957726903	2298.220389877384	939.7022658563155	868.2178351035448	1883.790085952429	276.7599277145903	1003.835564208332	1872.035619320945	328.978992967467	910.9481298869489	2168.179460472504	917.6799030556725	945.6895871151501	2014.482204100804	425.6230275583812	932.1442003046994	2016.386715843341	454.8970430423459	973.9355594389757	2092.102700975444	439.4322344246652	914.8485875738767	2098.338848040973	467.2001708275163	959.4102183293231	2303.431441062342	513.3114957889516	865.9074242793187	2243.176071326041	506.8777435029791	907.2090821635767	2281.650019788429	619.3873491690143	851.075164266458	2224.760429287907	613.647350693403	891.6474617859304	2303.786211408344	919.5882644054823	1149.547596685182	2322.044265410935	75.67450468582973	1044.616247407726	2144.695880266028	31.88738971196629	1050.746523506412	2175.33731111727	46.77785179020626	1088.878254494841	2157.151242097579	75.8286833055803	1048.550008207656	2238.209525486977	961.4784877180241	1161.929649501753	2341.828210785072	46.94317955438967	1001.672112510328	2319.350106282767	33.22163810089705	1109.22434171118	2153.417058291896	933.3614601920769	1042.792778583551	2249.901791190116	143.3131861101721	1108.953541320523	2208.638133599433	164.2936039526097	1077.663464970559	2266.694319738002	218.9470159304453	1134.641282251082	2227.411659883754	238.6154279432273	1101.682204946851	2327.103411197435	537.7503371085235	1179.648733170792	2274.532018442267	522.380578363207	1133.432111858868	2283.408508969071	638.0816009434609	1196.798585647623	2230.956523991912	621.2120624727303	1156.084065728162	
2256	15.03333333333333	2341.018220947192	884.1303390280808	915.0388342663097	1896.011020141977	481.367186052241	1007.498513808503	1909.624043574879	458.6576032879566	959.2418939578577	1942.379061099662	469.2932163992057	1003.536257836886	2293.10930188256	938.413440911329	866.7648815763613	1897.382845262044	273.5801482454723	1004.787513298076	1886.196879664656	322.7116403633664	910.2296755960878	2166.097829400875	916.6176509892233	945.6691000746991	2026.38669966177	423.0865927417631	930.4257388933172	2027.772018609238	452.8388325261281	971.9342589539484	2104.250673853383	437.0851061393451	913.9630622757476	2109.883815986238	465.4265227030833	958.2536171343392	2312.339281182222	513.0082875201944	866.4753207071276	2251.46385895009	504.6829877349592	906.480445226316	2287.503100419379	618.3611897340088	851.1546021938165	2229.96063582476	610.84079314963	890.5004447028643	2302.681505444323	918.9066692428137	1148.867006967254	2305.510323148854	75.74636733435773	1044.904697124098	2128.182452264841	32.22053956691063	1051.01050782939	2158.833702656036	47.05720842793671	1089.165032903242	2140.675716083549	76.11990351776225	1048.891194315039	2235.783095751352	960.9768803427655	1161.252035024807	2325.124095385571	47.27770160506361	1002.083922848817	2302.594002505913	33.39713879357621	1109.451662702545	2151.910421860851	932.9055777402065	1042.31244356493	2235.142598641701	143.1005051697915	1109.125895923661	2194.110812905598	164.9191152167631	1078.252355607539	2253.635982660402	218.2642306449055	1135.001787889424	2214.504671127195	238.765506653655	1102.331371981053	2319.233744894754	535.8381044064083	1179.83007682631	2266.513679452732	521.5381710929851	1133.39532575341	2277.428374579881	637.0522173321804	1196.601546607662	2224.977445808631	621.2822703199928	1155.522815874707	
